<svg width="3499" height="1346" xmlns="http://www.w3.org/2000/svg" xmlns:xlink="http://www.w3.org/1999/xlink" xml:space="preserve" overflow="hidden"><defs><clipPath id="clip0"><rect x="393" y="995" width="3499" height="1346"/></clipPath></defs><g clip-path="url(#clip0)" transform="translate(-393 -995)"><g><path d="M644.5 2016.57 2106.5 2016.57M644.5 1938.56 2106.5 1938.56M644.5 1861.56 2106.5 1861.56M644.5 1783.56 2106.5 1783.56M644.5 1706.56 2106.5 1706.56M644.5 1628.55 2106.5 1628.55M644.5 1551.55 2106.5 1551.55M644.5 1473.55 2106.5 1473.55M644.5 1395.55 2106.5 1395.55M644.5 1318.5 2106.5 1318.5" stroke="#D9D9D9" stroke-width="3.4375" stroke-linejoin="round" stroke-miterlimit="10" fill="none"/></g><g><path d="M644.5 2094.5 2106.5 2094.5" stroke="#D9D9D9" stroke-width="3.4375" stroke-linejoin="round" stroke-miterlimit="10" fill="none" fill-rule="evenodd"/></g><g><path d="M690 1830 782.026 1649.05 873.029 1588.05 964.032 1568.05 1056.03 1536.05 1147.04 1517.05 1238.04 1486.05 1330.04 1466.05 1421.05 1446.05 1512.05 1416.05 1604.05 1394.05 1695.06 1385.05 1786.06 1374.05 1878.06 1363 1969.06 1363 2060 1363" stroke="#5B9BD5" stroke-width="10.3125" stroke-linecap="round" stroke-linejoin="round" stroke-miterlimit="10" fill="none"/></g><g><path d="M701.086 1830.8C701.086 1836.88 696.161 1841.8 690.086 1841.8 684.011 1841.8 679.086 1836.88 679.086 1830.8 679.086 1824.73 684.011 1819.8 690.086 1819.8 696.161 1819.8 701.086 1824.73 701.086 1830.8Z" stroke="#5B9BD5" stroke-width="3.4375" stroke-linejoin="round" stroke-miterlimit="10" fill="#5B9BD5"/><path d="M792.086 1648.8C792.086 1654.88 787.161 1659.8 781.086 1659.8 775.011 1659.8 770.087 1654.88 770.087 1648.8 770.087 1642.73 775.011 1637.8 781.086 1637.8 787.161 1637.8 792.086 1642.73 792.086 1648.8Z" stroke="#5B9BD5" stroke-width="3.4375" stroke-linejoin="round" stroke-miterlimit="10" fill="#5B9BD5"/><path d="M883.086 1588.8C883.086 1594.88 878.161 1599.8 872.086 1599.8 866.011 1599.8 861.086 1594.88 861.086 1588.8 861.086 1582.73 866.011 1577.8 872.086 1577.8 878.161 1577.8 883.086 1582.73 883.086 1588.8Z" stroke="#5B9BD5" stroke-width="3.4375" stroke-linejoin="round" stroke-miterlimit="10" fill="#5B9BD5"/><path d="M975.086 1568.8C975.086 1574.88 970.161 1579.8 964.086 1579.8 958.011 1579.8 953.086 1574.88 953.086 1568.8 953.086 1562.73 958.011 1557.8 964.086 1557.8 970.161 1557.8 975.086 1562.73 975.086 1568.8Z" stroke="#5B9BD5" stroke-width="3.4375" stroke-linejoin="round" stroke-miterlimit="10" fill="#5B9BD5"/><path d="M1066.09 1535.8C1066.09 1541.88 1061.16 1546.8 1055.09 1546.8 1049.01 1546.8 1044.09 1541.88 1044.09 1535.8 1044.09 1529.73 1049.01 1524.8 1055.09 1524.8 1061.16 1524.8 1066.09 1529.73 1066.09 1535.8Z" stroke="#5B9BD5" stroke-width="3.4375" stroke-linejoin="round" stroke-miterlimit="10" fill="#5B9BD5"/><path d="M1157.09 1516.8C1157.09 1522.88 1152.16 1527.8 1146.09 1527.8 1140.01 1527.8 1135.09 1522.88 1135.09 1516.8 1135.09 1510.73 1140.01 1505.8 1146.09 1505.8 1152.16 1505.8 1157.09 1510.73 1157.09 1516.8Z" stroke="#5B9BD5" stroke-width="3.4375" stroke-linejoin="round" stroke-miterlimit="10" fill="#5B9BD5"/><path d="M1249.09 1485.8C1249.09 1491.88 1244.16 1496.8 1238.09 1496.8 1232.01 1496.8 1227.09 1491.88 1227.09 1485.8 1227.09 1479.73 1232.01 1474.8 1238.09 1474.8 1244.16 1474.8 1249.09 1479.73 1249.09 1485.8Z" stroke="#5B9BD5" stroke-width="3.4375" stroke-linejoin="round" stroke-miterlimit="10" fill="#5B9BD5"/><path d="M1340.09 1465.8C1340.09 1471.88 1335.16 1476.8 1329.09 1476.8 1323.01 1476.8 1318.09 1471.88 1318.09 1465.8 1318.09 1459.73 1323.01 1454.8 1329.09 1454.8 1335.16 1454.8 1340.09 1459.73 1340.09 1465.8Z" stroke="#5B9BD5" stroke-width="3.4375" stroke-linejoin="round" stroke-miterlimit="10" fill="#5B9BD5"/><path d="M1431.09 1445.8C1431.09 1451.88 1426.16 1456.8 1420.09 1456.8 1414.01 1456.8 1409.09 1451.88 1409.09 1445.8 1409.09 1439.73 1414.01 1434.8 1420.09 1434.8 1426.16 1434.8 1431.09 1439.73 1431.09 1445.8Z" stroke="#5B9BD5" stroke-width="3.4375" stroke-linejoin="round" stroke-miterlimit="10" fill="#5B9BD5"/><path d="M1523.09 1416.8C1523.09 1422.88 1518.16 1427.8 1512.09 1427.8 1506.01 1427.8 1501.09 1422.88 1501.09 1416.8 1501.09 1410.73 1506.01 1405.8 1512.09 1405.8 1518.16 1405.8 1523.09 1410.73 1523.09 1416.8Z" stroke="#5B9BD5" stroke-width="3.4375" stroke-linejoin="round" stroke-miterlimit="10" fill="#5B9BD5"/><path d="M1614.09 1394.8C1614.09 1400.88 1609.16 1405.8 1603.09 1405.8 1597.01 1405.8 1592.09 1400.88 1592.09 1394.8 1592.09 1388.73 1597.01 1383.8 1603.09 1383.8 1609.16 1383.8 1614.09 1388.73 1614.09 1394.8Z" stroke="#5B9BD5" stroke-width="3.4375" stroke-linejoin="round" stroke-miterlimit="10" fill="#5B9BD5"/><path d="M1706.09 1385.8C1706.09 1391.88 1701.16 1396.8 1695.09 1396.8 1689.01 1396.8 1684.09 1391.88 1684.09 1385.8 1684.09 1379.73 1689.01 1374.8 1695.09 1374.8 1701.16 1374.8 1706.09 1379.73 1706.09 1385.8Z" stroke="#5B9BD5" stroke-width="3.4375" stroke-linejoin="round" stroke-miterlimit="10" fill="#5B9BD5"/><path d="M1797.09 1374.8C1797.09 1380.88 1792.16 1385.8 1786.09 1385.8 1780.01 1385.8 1775.09 1380.88 1775.09 1374.8 1775.09 1368.73 1780.01 1363.8 1786.09 1363.8 1792.16 1363.8 1797.09 1368.73 1797.09 1374.8Z" stroke="#5B9BD5" stroke-width="3.4375" stroke-linejoin="round" stroke-miterlimit="10" fill="#5B9BD5"/><path d="M1888.09 1363.8C1888.09 1369.88 1883.16 1374.8 1877.09 1374.8 1871.01 1374.8 1866.09 1369.88 1866.09 1363.8 1866.09 1357.73 1871.01 1352.8 1877.09 1352.8 1883.16 1352.8 1888.09 1357.73 1888.09 1363.8Z" stroke="#5B9BD5" stroke-width="3.4375" stroke-linejoin="round" stroke-miterlimit="10" fill="#5B9BD5"/><path d="M1980.09 1363.8C1980.09 1369.88 1975.16 1374.8 1969.09 1374.8 1963.01 1374.8 1958.09 1369.88 1958.09 1363.8 1958.09 1357.73 1963.01 1352.8 1969.09 1352.8 1975.16 1352.8 1980.09 1357.73 1980.09 1363.8Z" stroke="#5B9BD5" stroke-width="3.4375" stroke-linejoin="round" stroke-miterlimit="10" fill="#5B9BD5"/><path d="M2071.09 1363.8C2071.09 1369.88 2066.16 1374.8 2060.09 1374.8 2054.01 1374.8 2049.09 1369.88 2049.09 1363.8 2049.09 1357.73 2054.01 1352.8 2060.09 1352.8 2066.16 1352.8 2071.09 1357.73 2071.09 1363.8Z" stroke="#5B9BD5" stroke-width="3.4375" stroke-linejoin="round" stroke-miterlimit="10" fill="#5B9BD5"/></g><g><path d="M690 1869 782.026 1760.06 873.029 1750.06 964.032 1719.06 1056.03 1709.06 1147.04 1689.06 1238.04 1689.06 1330.04 1678.06 1421.05 1638.05 1512.05 1627.05 1604.05 1618.05 1695.06 1608.05 1786.06 1598.05 1878.06 1591.05 1969.06 1581 2060 1581" stroke="#ED7D31" stroke-width="10.3125" stroke-linecap="round" stroke-linejoin="round" stroke-miterlimit="10" fill="none"/></g><g><path d="M701.086 1869.8C701.086 1875.88 696.161 1880.8 690.086 1880.8 684.011 1880.8 679.086 1875.88 679.086 1869.8 679.086 1863.73 684.011 1858.8 690.086 1858.8 696.161 1858.8 701.086 1863.73 701.086 1869.8Z" stroke="#ED7D31" stroke-width="3.4375" stroke-linejoin="round" stroke-miterlimit="10" fill="#ED7D31"/><path d="M792.086 1760.8C792.086 1766.88 787.161 1771.8 781.086 1771.8 775.011 1771.8 770.087 1766.88 770.087 1760.8 770.087 1754.73 775.011 1749.8 781.086 1749.8 787.161 1749.8 792.086 1754.73 792.086 1760.8Z" stroke="#ED7D31" stroke-width="3.4375" stroke-linejoin="round" stroke-miterlimit="10" fill="#ED7D31"/><path d="M883.086 1749.8C883.086 1755.88 878.161 1760.8 872.086 1760.8 866.011 1760.8 861.086 1755.88 861.086 1749.8 861.086 1743.73 866.011 1738.8 872.086 1738.8 878.161 1738.8 883.086 1743.73 883.086 1749.8Z" stroke="#ED7D31" stroke-width="3.4375" stroke-linejoin="round" stroke-miterlimit="10" fill="#ED7D31"/><path d="M975.086 1718.8C975.086 1724.88 970.161 1729.8 964.086 1729.8 958.011 1729.8 953.086 1724.88 953.086 1718.8 953.086 1712.73 958.011 1707.8 964.086 1707.8 970.161 1707.8 975.086 1712.73 975.086 1718.8Z" stroke="#ED7D31" stroke-width="3.4375" stroke-linejoin="round" stroke-miterlimit="10" fill="#ED7D31"/><path d="M1066.09 1709.8C1066.09 1715.88 1061.16 1720.8 1055.09 1720.8 1049.01 1720.8 1044.09 1715.88 1044.09 1709.8 1044.09 1703.73 1049.01 1698.8 1055.09 1698.8 1061.16 1698.8 1066.09 1703.73 1066.09 1709.8Z" stroke="#ED7D31" stroke-width="3.4375" stroke-linejoin="round" stroke-miterlimit="10" fill="#ED7D31"/><path d="M1157.09 1689.8C1157.09 1695.88 1152.16 1700.8 1146.09 1700.8 1140.01 1700.8 1135.09 1695.88 1135.09 1689.8 1135.09 1683.73 1140.01 1678.8 1146.09 1678.8 1152.16 1678.8 1157.09 1683.73 1157.09 1689.8Z" stroke="#ED7D31" stroke-width="3.4375" stroke-linejoin="round" stroke-miterlimit="10" fill="#ED7D31"/><path d="M1249.09 1689.8C1249.09 1695.88 1244.16 1700.8 1238.09 1700.8 1232.01 1700.8 1227.09 1695.88 1227.09 1689.8 1227.09 1683.73 1232.01 1678.8 1238.09 1678.8 1244.16 1678.8 1249.09 1683.73 1249.09 1689.8Z" stroke="#ED7D31" stroke-width="3.4375" stroke-linejoin="round" stroke-miterlimit="10" fill="#ED7D31"/><path d="M1340.09 1678.8C1340.09 1684.88 1335.16 1689.8 1329.09 1689.8 1323.01 1689.8 1318.09 1684.88 1318.09 1678.8 1318.09 1672.73 1323.01 1667.8 1329.09 1667.8 1335.16 1667.8 1340.09 1672.73 1340.09 1678.8Z" stroke="#ED7D31" stroke-width="3.4375" stroke-linejoin="round" stroke-miterlimit="10" fill="#ED7D31"/><path d="M1431.09 1637.8C1431.09 1643.88 1426.16 1648.8 1420.09 1648.8 1414.01 1648.8 1409.09 1643.88 1409.09 1637.8 1409.09 1631.73 1414.01 1626.8 1420.09 1626.8 1426.16 1626.8 1431.09 1631.73 1431.09 1637.8Z" stroke="#ED7D31" stroke-width="3.4375" stroke-linejoin="round" stroke-miterlimit="10" fill="#ED7D31"/><path d="M1523.09 1627.8C1523.09 1633.88 1518.16 1638.8 1512.09 1638.8 1506.01 1638.8 1501.09 1633.88 1501.09 1627.8 1501.09 1621.73 1506.01 1616.8 1512.09 1616.8 1518.16 1616.8 1523.09 1621.73 1523.09 1627.8Z" stroke="#ED7D31" stroke-width="3.4375" stroke-linejoin="round" stroke-miterlimit="10" fill="#ED7D31"/><path d="M1614.09 1617.8C1614.09 1623.88 1609.16 1628.8 1603.09 1628.8 1597.01 1628.8 1592.09 1623.88 1592.09 1617.8 1592.09 1611.73 1597.01 1606.8 1603.09 1606.8 1609.16 1606.8 1614.09 1611.73 1614.09 1617.8Z" stroke="#ED7D31" stroke-width="3.4375" stroke-linejoin="round" stroke-miterlimit="10" fill="#ED7D31"/><path d="M1706.09 1608.8C1706.09 1614.88 1701.16 1619.8 1695.09 1619.8 1689.01 1619.8 1684.09 1614.88 1684.09 1608.8 1684.09 1602.73 1689.01 1597.8 1695.09 1597.8 1701.16 1597.8 1706.09 1602.73 1706.09 1608.8Z" stroke="#ED7D31" stroke-width="3.4375" stroke-linejoin="round" stroke-miterlimit="10" fill="#ED7D31"/><path d="M1797.09 1597.8C1797.09 1603.88 1792.16 1608.8 1786.09 1608.8 1780.01 1608.8 1775.09 1603.88 1775.09 1597.8 1775.09 1591.73 1780.01 1586.8 1786.09 1586.8 1792.16 1586.8 1797.09 1591.73 1797.09 1597.8Z" stroke="#ED7D31" stroke-width="3.4375" stroke-linejoin="round" stroke-miterlimit="10" fill="#ED7D31"/><path d="M1888.09 1591.8C1888.09 1597.88 1883.16 1602.8 1877.09 1602.8 1871.01 1602.8 1866.09 1597.88 1866.09 1591.8 1866.09 1585.73 1871.01 1580.8 1877.09 1580.8 1883.16 1580.8 1888.09 1585.73 1888.09 1591.8Z" stroke="#ED7D31" stroke-width="3.4375" stroke-linejoin="round" stroke-miterlimit="10" fill="#ED7D31"/><path d="M1980.09 1580.8C1980.09 1586.88 1975.16 1591.8 1969.09 1591.8 1963.01 1591.8 1958.09 1586.88 1958.09 1580.8 1958.09 1574.73 1963.01 1569.8 1969.09 1569.8 1975.16 1569.8 1980.09 1574.73 1980.09 1580.8Z" stroke="#ED7D31" stroke-width="3.4375" stroke-linejoin="round" stroke-miterlimit="10" fill="#ED7D31"/><path d="M2071.09 1580.8C2071.09 1586.88 2066.16 1591.8 2060.09 1591.8 2054.01 1591.8 2049.09 1586.88 2049.09 1580.8 2049.09 1574.73 2054.01 1569.8 2060.09 1569.8 2066.16 1569.8 2071.09 1574.73 2071.09 1580.8Z" stroke="#ED7D31" stroke-width="3.4375" stroke-linejoin="round" stroke-miterlimit="10" fill="#ED7D31"/></g><g><text fill="#404040" font-family="Calibri,Calibri_MSFontService,sans-serif" font-weight="400" font-size="41" transform="matrix(1 0 0 1 669.3 1787)">17</text></g><g><text fill="#404040" font-family="Calibri,Calibri_MSFontService,sans-serif" font-weight="400" font-size="41" transform="matrix(1 0 0 1 744.997 1605)">28.7</text></g><g><text fill="#404040" font-family="Calibri,Calibri_MSFontService,sans-serif" font-weight="400" font-size="41" transform="matrix(1 0 0 1 836.346 1545)">32.6</text></g><g><text fill="#404040" font-family="Calibri,Calibri_MSFontService,sans-serif" font-weight="400" font-size="41" transform="matrix(1 0 0 1 927.695 1525)">33.9</text></g><g><text fill="#404040" font-family="Calibri,Calibri_MSFontService,sans-serif" font-weight="400" font-size="41" transform="matrix(1 0 0 1 1034.7 1492)">36</text></g><g><text fill="#404040" font-family="Calibri,Calibri_MSFontService,sans-serif" font-weight="400" font-size="41" transform="matrix(1 0 0 1 1110.39 1474)">37.2</text></g><g><text fill="#404040" font-family="Calibri,Calibri_MSFontService,sans-serif" font-weight="400" font-size="41" transform="matrix(1 0 0 1 1201.74 1443)">39.2</text></g><g><text fill="#404040" font-family="Calibri,Calibri_MSFontService,sans-serif" font-weight="400" font-size="41" transform="matrix(1 0 0 1 1293.09 1422)">40.5</text></g><g><text fill="#404040" font-family="Calibri,Calibri_MSFontService,sans-serif" font-weight="400" font-size="41" transform="matrix(1 0 0 1 1384.44 1402)">41.8</text></g><g><text fill="#404040" font-family="Calibri,Calibri_MSFontService,sans-serif" font-weight="400" font-size="41" transform="matrix(1 0 0 1 1475.79 1373)">43.7</text></g><g><text fill="#404040" font-family="Calibri,Calibri_MSFontService,sans-serif" font-weight="400" font-size="41" transform="matrix(1 0 0 1 1567.14 1351)">45.1</text></g><g><text fill="#404040" font-family="Calibri,Calibri_MSFontService,sans-serif" font-weight="400" font-size="41" transform="matrix(1 0 0 1 1658.49 1342)">45.7</text></g><g><text fill="#404040" font-family="Calibri,Calibri_MSFontService,sans-serif" font-weight="400" font-size="41" transform="matrix(1 0 0 1 1749.84 1331)">46.4</text></g><g><text fill="#404040" font-family="Calibri,Calibri_MSFontService,sans-serif" font-weight="400" font-size="41" transform="matrix(1 0 0 1 1841.19 1320)">47.1</text></g><g><text fill="#404040" font-family="Calibri,Calibri_MSFontService,sans-serif" font-weight="400" font-size="41" transform="matrix(1 0 0 1 1932.54 1320)">47.1</text></g><g><text fill="#404040" font-family="Calibri,Calibri_MSFontService,sans-serif" font-weight="400" font-size="41" transform="matrix(1 0 0 1 2023.89 1320)">47.1</text></g><g><text fill="#404040" font-family="Calibri,Calibri_MSFontService,sans-serif" font-weight="400" font-size="41" transform="matrix(1 0 0 1 653.648 1826)">14.5</text></g><g><text fill="#404040" font-family="Calibri,Calibri_MSFontService,sans-serif" font-weight="400" font-size="41" transform="matrix(1 0 0 1 744.997 1717)">21.5</text></g><g><text fill="#404040" font-family="Calibri,Calibri_MSFontService,sans-serif" font-weight="400" font-size="41" transform="matrix(1 0 0 1 836.346 1706)">22.2</text></g><g><text fill="#404040" font-family="Calibri,Calibri_MSFontService,sans-serif" font-weight="400" font-size="41" transform="matrix(1 0 0 1 927.695 1675)">24.2</text></g><g><text fill="#404040" font-family="Calibri,Calibri_MSFontService,sans-serif" font-weight="400" font-size="41" transform="matrix(1 0 0 1 1019.04 1666)">24.8</text></g><g><text fill="#404040" font-family="Calibri,Calibri_MSFontService,sans-serif" font-weight="400" font-size="41" transform="matrix(1 0 0 1 1110.39 1646)">26.1</text></g><g><text fill="#404040" font-family="Calibri,Calibri_MSFontService,sans-serif" font-weight="400" font-size="41" transform="matrix(1 0 0 1 1201.74 1646)">26.1</text></g><g><text fill="#404040" font-family="Calibri,Calibri_MSFontService,sans-serif" font-weight="400" font-size="41" transform="matrix(1 0 0 1 1293.09 1635)">26.8</text></g><g><text fill="#404040" font-family="Calibri,Calibri_MSFontService,sans-serif" font-weight="400" font-size="41" transform="matrix(1 0 0 1 1384.44 1595)">29.4</text></g><g><text fill="#404040" font-family="Calibri,Calibri_MSFontService,sans-serif" font-weight="400" font-size="41" transform="matrix(1 0 0 1 1475.79 1584)">30.1</text></g><g><text fill="#404040" font-family="Calibri,Calibri_MSFontService,sans-serif" font-weight="400" font-size="41" transform="matrix(1 0 0 1 1567.14 1574)">30.7</text></g><g><text fill="#404040" font-family="Calibri,Calibri_MSFontService,sans-serif" font-weight="400" font-size="41" transform="matrix(1 0 0 1 1658.49 1565)">31.3</text></g><g><text fill="#404040" font-family="Calibri,Calibri_MSFontService,sans-serif" font-weight="400" font-size="41" transform="matrix(1 0 0 1 1765.49 1554)">32</text></g><g><text fill="#404040" font-family="Calibri,Calibri_MSFontService,sans-serif" font-weight="400" font-size="41" transform="matrix(1 0 0 1 1841.19 1548)">32.4</text></g><g><text fill="#404040" font-family="Calibri,Calibri_MSFontService,sans-serif" font-weight="400" font-size="41" transform="matrix(1 0 0 1 1932.54 1537)">33.1</text></g><g><text fill="#404040" font-family="Calibri,Calibri_MSFontService,sans-serif" font-weight="400" font-size="41" transform="matrix(1 0 0 1 2023.89 1537)">33.1</text></g><g><text fill="#595959" font-family="Calibri,Calibri_MSFontService,sans-serif" font-weight="400" font-size="55" transform="matrix(1 0 0 1 565.837 2110)">0</text></g><g><text fill="#595959" font-family="Calibri,Calibri_MSFontService,sans-serif" font-weight="400" font-size="55" transform="matrix(1 0 0 1 565.837 2032)">5</text></g><g><text fill="#595959" font-family="Calibri,Calibri_MSFontService,sans-serif" font-weight="400" font-size="55" transform="matrix(1 0 0 1 538.039 1954)">10</text></g><g><text fill="#595959" font-family="Calibri,Calibri_MSFontService,sans-serif" font-weight="400" font-size="55" transform="matrix(1 0 0 1 538.039 1877)">15</text></g><g><text fill="#595959" font-family="Calibri,Calibri_MSFontService,sans-serif" font-weight="400" font-size="55" transform="matrix(1 0 0 1 538.039 1799)">20</text></g><g><text fill="#595959" font-family="Calibri,Calibri_MSFontService,sans-serif" font-weight="400" font-size="55" transform="matrix(1 0 0 1 538.039 1722)">25</text></g><g><text fill="#595959" font-family="Calibri,Calibri_MSFontService,sans-serif" font-weight="400" font-size="55" transform="matrix(1 0 0 1 538.039 1644)">30</text></g><g><text fill="#595959" font-family="Calibri,Calibri_MSFontService,sans-serif" font-weight="400" font-size="55" transform="matrix(1 0 0 1 538.039 1567)">35</text></g><g><text fill="#595959" font-family="Calibri,Calibri_MSFontService,sans-serif" font-weight="400" font-size="55" transform="matrix(1 0 0 1 538.039 1489)">40</text></g><g><text fill="#595959" font-family="Calibri,Calibri_MSFontService,sans-serif" font-weight="400" font-size="55" transform="matrix(1 0 0 1 538.039 1411)">45</text></g><g><text fill="#595959" font-family="Calibri,Calibri_MSFontService,sans-serif" font-weight="400" font-size="55" transform="matrix(1 0 0 1 538.039 1334)">50</text></g><g><text fill="#595959" font-family="Calibri,Calibri_MSFontService,sans-serif" font-weight="400" font-size="55" transform="matrix(1 0 0 1 676.301 2181)">1</text></g><g><text fill="#595959" font-family="Calibri,Calibri_MSFontService,sans-serif" font-weight="400" font-size="55" transform="matrix(1 0 0 1 767.65 2181)">2</text></g><g><text fill="#595959" font-family="Calibri,Calibri_MSFontService,sans-serif" font-weight="400" font-size="55" transform="matrix(1 0 0 1 858.999 2181)">3</text></g><g><text fill="#595959" font-family="Calibri,Calibri_MSFontService,sans-serif" font-weight="400" font-size="55" transform="matrix(1 0 0 1 950.348 2181)">4</text></g><g><text fill="#595959" font-family="Calibri,Calibri_MSFontService,sans-serif" font-weight="400" font-size="55" transform="matrix(1 0 0 1 1041.7 2181)">5</text></g><g><text fill="#595959" font-family="Calibri,Calibri_MSFontService,sans-serif" font-weight="400" font-size="55" transform="matrix(1 0 0 1 1133.05 2181)">6</text></g><g><text fill="#595959" font-family="Calibri,Calibri_MSFontService,sans-serif" font-weight="400" font-size="55" transform="matrix(1 0 0 1 1224.4 2181)">7</text></g><g><text fill="#595959" font-family="Calibri,Calibri_MSFontService,sans-serif" font-weight="400" font-size="55" transform="matrix(1 0 0 1 1315.74 2181)">8</text></g><g><text fill="#595959" font-family="Calibri,Calibri_MSFontService,sans-serif" font-weight="400" font-size="55" transform="matrix(1 0 0 1 1407.09 2181)">9</text></g><g><text fill="#595959" font-family="Calibri,Calibri_MSFontService,sans-serif" font-weight="400" font-size="55" transform="matrix(1 0 0 1 1484.54 2181)">10</text></g><g><text fill="#595959" font-family="Calibri,Calibri_MSFontService,sans-serif" font-weight="400" font-size="55" transform="matrix(1 0 0 1 1575.89 2181)">11</text></g><g><text fill="#595959" font-family="Calibri,Calibri_MSFontService,sans-serif" font-weight="400" font-size="55" transform="matrix(1 0 0 1 1667.24 2181)">12</text></g><g><text fill="#595959" font-family="Calibri,Calibri_MSFontService,sans-serif" font-weight="400" font-size="55" transform="matrix(1 0 0 1 1758.59 2181)">13</text></g><g><text fill="#595959" font-family="Calibri,Calibri_MSFontService,sans-serif" font-weight="400" font-size="55" transform="matrix(1 0 0 1 1849.94 2181)">14</text></g><g><text fill="#595959" font-family="Calibri,Calibri_MSFontService,sans-serif" font-weight="400" font-size="55" transform="matrix(1 0 0 1 1941.29 2181)">15</text></g><g><text fill="#595959" font-family="Calibri,Calibri_MSFontService,sans-serif" font-weight="400" font-size="55" transform="matrix(1 0 0 1 2032.64 2181)">16</text></g><g><text fill="#595959" font-family="Calibri,Calibri_MSFontService,sans-serif" font-weight="400" font-size="61" transform="matrix(6.12323e-17 -1 1 6.12323e-17 507.88 1750)">Acc</text></g><g><text fill="#595959" font-family="Calibri,Calibri_MSFontService,sans-serif" font-weight="400" font-size="61" transform="matrix(1 0 0 1 1172.99 2268)">Number of trials</text></g><g><text fill="#595959" font-family="Calibri,Calibri_MSFontService,sans-serif" font-weight="400" font-size="85" transform="matrix(1 0 0 1 907.73 1111)">WindowsAgentArena</text></g><g><path d="M974 1215 1062 1215" stroke="#5B9BD5" stroke-width="10.3125" stroke-linecap="round" stroke-linejoin="round" stroke-miterlimit="10" fill="none" fill-rule="evenodd"/></g><g><path d="M1029 1215C1029 1221.07 1024.08 1226 1018 1226 1011.92 1226 1007 1221.07 1007 1215 1007 1208.92 1011.92 1204 1018 1204 1024.08 1204 1029 1208.92 1029 1215Z" stroke="#5B9BD5" stroke-width="3.4375" stroke-linejoin="round" stroke-miterlimit="10" fill="#5B9BD5"/></g><g><text fill="#595959" font-family="Calibri,Calibri_MSFontService,sans-serif" font-weight="400" font-size="55" transform="matrix(1 0 0 1 1071.36 1231)">STEVE-R1</text></g><g><path d="M1334 1215 1422 1215" stroke="#ED7D31" stroke-width="10.3125" stroke-linecap="round" stroke-linejoin="round" stroke-miterlimit="10" fill="none" fill-rule="evenodd"/></g><g><path d="M1389 1215C1389 1221.07 1384.07 1226 1378 1226 1371.92 1226 1367 1221.07 1367 1215 1367 1208.92 1371.92 1204 1378 1204 1384.07 1204 1389 1208.92 1389 1215Z" stroke="#ED7D31" stroke-width="3.4375" stroke-linejoin="round" stroke-miterlimit="10" fill="#ED7D31"/></g><g><text fill="#595959" font-family="Calibri,Calibri_MSFontService,sans-serif" font-weight="400" font-size="55" transform="matrix(1 0 0 1 1431.76 1231)">UI-Tars</text></g><g><path d="M2301.5 1983.57 3841.5 1983.57M2301.5 1872.56 3841.5 1872.56M2301.5 1761.56 3841.5 1761.56M2301.5 1650.55 3841.5 1650.55M2301.5 1539.55 3841.5 1539.55M2301.5 1429.55 3841.5 1429.55M2301.5 1318.5 3841.5 1318.5" stroke="#D9D9D9" stroke-width="3.4375" stroke-linejoin="round" stroke-miterlimit="10" fill="none"/></g><g><path d="M2301.5 2094.5 3841.5 2094.5" stroke="#D9D9D9" stroke-width="3.4375" stroke-linejoin="round" stroke-miterlimit="10" fill="none" fill-rule="evenodd"/></g><g><path d="M2350 1895 2446.08 1731.06 2542.08 1664.05 2639.09 1609.05 2735.09 1578.05 2831.09 1540.05 2927.1 1502.05 3023.1 1491.05 3120.1 1462.05 3216.11 1442.05 3312.11 1425.05 3408.11 1400.05 3504.11 1394.05 3601.12 1383 3697.12 1383 3793 1383" stroke="#5B9BD5" stroke-width="10.3125" stroke-linecap="round" stroke-linejoin="round" stroke-miterlimit="10" fill="none"/></g><g><path d="M2361.52 1894.8C2361.52 1900.88 2356.6 1905.8 2350.52 1905.8 2344.45 1905.8 2339.52 1900.88 2339.52 1894.8 2339.52 1888.73 2344.45 1883.8 2350.52 1883.8 2356.6 1883.8 2361.52 1888.73 2361.52 1894.8Z" stroke="#5B9BD5" stroke-width="3.4375" stroke-linejoin="round" stroke-miterlimit="10" fill="#5B9BD5"/><path d="M2457.52 1730.8C2457.52 1736.88 2452.6 1741.8 2446.52 1741.8 2440.45 1741.8 2435.52 1736.88 2435.52 1730.8 2435.52 1724.73 2440.45 1719.8 2446.52 1719.8 2452.6 1719.8 2457.52 1724.73 2457.52 1730.8Z" stroke="#5B9BD5" stroke-width="3.4375" stroke-linejoin="round" stroke-miterlimit="10" fill="#5B9BD5"/><path d="M2553.52 1664.8C2553.52 1670.88 2548.6 1675.8 2542.52 1675.8 2536.45 1675.8 2531.52 1670.88 2531.52 1664.8 2531.52 1658.73 2536.45 1653.8 2542.52 1653.8 2548.6 1653.8 2553.52 1658.73 2553.52 1664.8Z" stroke="#5B9BD5" stroke-width="3.4375" stroke-linejoin="round" stroke-miterlimit="10" fill="#5B9BD5"/><path d="M2649.52 1608.8C2649.52 1614.88 2644.6 1619.8 2638.52 1619.8 2632.45 1619.8 2627.52 1614.88 2627.52 1608.8 2627.52 1602.73 2632.45 1597.8 2638.52 1597.8 2644.6 1597.8 2649.52 1602.73 2649.52 1608.8Z" stroke="#5B9BD5" stroke-width="3.4375" stroke-linejoin="round" stroke-miterlimit="10" fill="#5B9BD5"/><path d="M2745.52 1577.8C2745.52 1583.88 2740.6 1588.8 2734.52 1588.8 2728.45 1588.8 2723.52 1583.88 2723.52 1577.8 2723.52 1571.73 2728.45 1566.8 2734.52 1566.8 2740.6 1566.8 2745.52 1571.73 2745.52 1577.8Z" stroke="#5B9BD5" stroke-width="3.4375" stroke-linejoin="round" stroke-miterlimit="10" fill="#5B9BD5"/><path d="M2842.52 1540.8C2842.52 1546.88 2837.6 1551.8 2831.52 1551.8 2825.45 1551.8 2820.52 1546.88 2820.52 1540.8 2820.52 1534.73 2825.45 1529.8 2831.52 1529.8 2837.6 1529.8 2842.52 1534.73 2842.52 1540.8Z" stroke="#5B9BD5" stroke-width="3.4375" stroke-linejoin="round" stroke-miterlimit="10" fill="#5B9BD5"/><path d="M2938.52 1502.8C2938.52 1508.88 2933.6 1513.8 2927.52 1513.8 2921.45 1513.8 2916.52 1508.88 2916.52 1502.8 2916.52 1496.73 2921.45 1491.8 2927.52 1491.8 2933.6 1491.8 2938.52 1496.73 2938.52 1502.8Z" stroke="#5B9BD5" stroke-width="3.4375" stroke-linejoin="round" stroke-miterlimit="10" fill="#5B9BD5"/><path d="M3034.52 1491.8C3034.52 1497.88 3029.6 1502.8 3023.52 1502.8 3017.45 1502.8 3012.52 1497.88 3012.52 1491.8 3012.52 1485.73 3017.45 1480.8 3023.52 1480.8 3029.6 1480.8 3034.52 1485.73 3034.52 1491.8Z" stroke="#5B9BD5" stroke-width="3.4375" stroke-linejoin="round" stroke-miterlimit="10" fill="#5B9BD5"/><path d="M3130.52 1462.8C3130.52 1468.88 3125.6 1473.8 3119.52 1473.8 3113.45 1473.8 3108.52 1468.88 3108.52 1462.8 3108.52 1456.73 3113.45 1451.8 3119.52 1451.8 3125.6 1451.8 3130.52 1456.73 3130.52 1462.8Z" stroke="#5B9BD5" stroke-width="3.4375" stroke-linejoin="round" stroke-miterlimit="10" fill="#5B9BD5"/><path d="M3226.52 1442.8C3226.52 1448.88 3221.6 1453.8 3215.52 1453.8 3209.45 1453.8 3204.52 1448.88 3204.52 1442.8 3204.52 1436.73 3209.45 1431.8 3215.52 1431.8 3221.6 1431.8 3226.52 1436.73 3226.52 1442.8Z" stroke="#5B9BD5" stroke-width="3.4375" stroke-linejoin="round" stroke-miterlimit="10" fill="#5B9BD5"/><path d="M3323.52 1424.8C3323.52 1430.88 3318.6 1435.8 3312.52 1435.8 3306.45 1435.8 3301.52 1430.88 3301.52 1424.8 3301.52 1418.73 3306.45 1413.8 3312.52 1413.8 3318.6 1413.8 3323.52 1418.73 3323.52 1424.8Z" stroke="#5B9BD5" stroke-width="3.4375" stroke-linejoin="round" stroke-miterlimit="10" fill="#5B9BD5"/><path d="M3419.52 1400.8C3419.52 1406.88 3414.6 1411.8 3408.52 1411.8 3402.45 1411.8 3397.52 1406.88 3397.52 1400.8 3397.52 1394.73 3402.45 1389.8 3408.52 1389.8 3414.6 1389.8 3419.52 1394.73 3419.52 1400.8Z" stroke="#5B9BD5" stroke-width="3.4375" stroke-linejoin="round" stroke-miterlimit="10" fill="#5B9BD5"/><path d="M3515.52 1393.8C3515.52 1399.88 3510.6 1404.8 3504.52 1404.8 3498.45 1404.8 3493.52 1399.88 3493.52 1393.8 3493.52 1387.73 3498.45 1382.8 3504.52 1382.8 3510.6 1382.8 3515.52 1387.73 3515.52 1393.8Z" stroke="#5B9BD5" stroke-width="3.4375" stroke-linejoin="round" stroke-miterlimit="10" fill="#5B9BD5"/><path d="M3611.52 1382.8C3611.52 1388.88 3606.6 1393.8 3600.52 1393.8 3594.45 1393.8 3589.52 1388.88 3589.52 1382.8 3589.52 1376.73 3594.45 1371.8 3600.52 1371.8 3606.6 1371.8 3611.52 1376.73 3611.52 1382.8Z" stroke="#5B9BD5" stroke-width="3.4375" stroke-linejoin="round" stroke-miterlimit="10" fill="#5B9BD5"/><path d="M3707.52 1382.8C3707.52 1388.88 3702.6 1393.8 3696.52 1393.8 3690.45 1393.8 3685.52 1388.88 3685.52 1382.8 3685.52 1376.73 3690.45 1371.8 3696.52 1371.8 3702.6 1371.8 3707.52 1376.73 3707.52 1382.8Z" stroke="#5B9BD5" stroke-width="3.4375" stroke-linejoin="round" stroke-miterlimit="10" fill="#5B9BD5"/><path d="M3804.52 1382.8C3804.52 1388.88 3799.6 1393.8 3793.52 1393.8 3787.45 1393.8 3782.52 1388.88 3782.52 1382.8 3782.52 1376.73 3787.45 1371.8 3793.52 1371.8 3799.6 1371.8 3804.52 1376.73 3804.52 1382.8Z" stroke="#5B9BD5" stroke-width="3.4375" stroke-linejoin="round" stroke-miterlimit="10" fill="#5B9BD5"/></g><g><path d="M2350 1777 2446.08 1706.06 2542.08 1651.05 2639.09 1633.05 2735.09 1622.05 2831.09 1598.05 2927.1 1598.05 3023.1 1598.05 3120.1 1578.05 3216.11 1573.05 3312.11 1567.05 3408.11 1553.05 3504.11 1536.05 3601.12 1536.05 3697.12 1529.05 3793 1525" stroke="#ED7D31" stroke-width="10.3125" stroke-linecap="round" stroke-linejoin="round" stroke-miterlimit="10" fill="none"/></g><g><path d="M2361.52 1777.8C2361.52 1783.88 2356.6 1788.8 2350.52 1788.8 2344.45 1788.8 2339.52 1783.88 2339.52 1777.8 2339.52 1771.73 2344.45 1766.8 2350.52 1766.8 2356.6 1766.8 2361.52 1771.73 2361.52 1777.8Z" stroke="#ED7D31" stroke-width="3.4375" stroke-linejoin="round" stroke-miterlimit="10" fill="#ED7D31"/><path d="M2457.52 1706.8C2457.52 1712.88 2452.6 1717.8 2446.52 1717.8 2440.45 1717.8 2435.52 1712.88 2435.52 1706.8 2435.52 1700.73 2440.45 1695.8 2446.52 1695.8 2452.6 1695.8 2457.52 1700.73 2457.52 1706.8Z" stroke="#ED7D31" stroke-width="3.4375" stroke-linejoin="round" stroke-miterlimit="10" fill="#ED7D31"/><path d="M2553.52 1650.8C2553.52 1656.88 2548.6 1661.8 2542.52 1661.8 2536.45 1661.8 2531.52 1656.88 2531.52 1650.8 2531.52 1644.73 2536.45 1639.8 2542.52 1639.8 2548.6 1639.8 2553.52 1644.73 2553.52 1650.8Z" stroke="#ED7D31" stroke-width="3.4375" stroke-linejoin="round" stroke-miterlimit="10" fill="#ED7D31"/><path d="M2649.52 1633.8C2649.52 1639.88 2644.6 1644.8 2638.52 1644.8 2632.45 1644.8 2627.52 1639.88 2627.52 1633.8 2627.52 1627.73 2632.45 1622.8 2638.52 1622.8 2644.6 1622.8 2649.52 1627.73 2649.52 1633.8Z" stroke="#ED7D31" stroke-width="3.4375" stroke-linejoin="round" stroke-miterlimit="10" fill="#ED7D31"/><path d="M2745.52 1622.8C2745.52 1628.88 2740.6 1633.8 2734.52 1633.8 2728.45 1633.8 2723.52 1628.88 2723.52 1622.8 2723.52 1616.73 2728.45 1611.8 2734.52 1611.8 2740.6 1611.8 2745.52 1616.73 2745.52 1622.8Z" stroke="#ED7D31" stroke-width="3.4375" stroke-linejoin="round" stroke-miterlimit="10" fill="#ED7D31"/><path d="M2842.52 1597.8C2842.52 1603.88 2837.6 1608.8 2831.52 1608.8 2825.45 1608.8 2820.52 1603.88 2820.52 1597.8 2820.52 1591.73 2825.45 1586.8 2831.52 1586.8 2837.6 1586.8 2842.52 1591.73 2842.52 1597.8Z" stroke="#ED7D31" stroke-width="3.4375" stroke-linejoin="round" stroke-miterlimit="10" fill="#ED7D31"/><path d="M2938.52 1597.8C2938.52 1603.88 2933.6 1608.8 2927.52 1608.8 2921.45 1608.8 2916.52 1603.88 2916.52 1597.8 2916.52 1591.73 2921.45 1586.8 2927.52 1586.8 2933.6 1586.8 2938.52 1591.73 2938.52 1597.8Z" stroke="#ED7D31" stroke-width="3.4375" stroke-linejoin="round" stroke-miterlimit="10" fill="#ED7D31"/><path d="M3034.52 1597.8C3034.52 1603.88 3029.6 1608.8 3023.52 1608.8 3017.45 1608.8 3012.52 1603.88 3012.52 1597.8 3012.52 1591.73 3017.45 1586.8 3023.52 1586.8 3029.6 1586.8 3034.52 1591.73 3034.52 1597.8Z" stroke="#ED7D31" stroke-width="3.4375" stroke-linejoin="round" stroke-miterlimit="10" fill="#ED7D31"/><path d="M3130.52 1577.8C3130.52 1583.88 3125.6 1588.8 3119.52 1588.8 3113.45 1588.8 3108.52 1583.88 3108.52 1577.8 3108.52 1571.73 3113.45 1566.8 3119.52 1566.8 3125.6 1566.8 3130.52 1571.73 3130.52 1577.8Z" stroke="#ED7D31" stroke-width="3.4375" stroke-linejoin="round" stroke-miterlimit="10" fill="#ED7D31"/><path d="M3226.52 1573.8C3226.52 1579.88 3221.6 1584.8 3215.52 1584.8 3209.45 1584.8 3204.52 1579.88 3204.52 1573.8 3204.52 1567.73 3209.45 1562.8 3215.52 1562.8 3221.6 1562.8 3226.52 1567.73 3226.52 1573.8Z" stroke="#ED7D31" stroke-width="3.4375" stroke-linejoin="round" stroke-miterlimit="10" fill="#ED7D31"/><path d="M3323.52 1566.8C3323.52 1572.88 3318.6 1577.8 3312.52 1577.8 3306.45 1577.8 3301.52 1572.88 3301.52 1566.8 3301.52 1560.73 3306.45 1555.8 3312.52 1555.8 3318.6 1555.8 3323.52 1560.73 3323.52 1566.8Z" stroke="#ED7D31" stroke-width="3.4375" stroke-linejoin="round" stroke-miterlimit="10" fill="#ED7D31"/><path d="M3419.52 1553.8C3419.52 1559.88 3414.6 1564.8 3408.52 1564.8 3402.45 1564.8 3397.52 1559.88 3397.52 1553.8 3397.52 1547.73 3402.45 1542.8 3408.52 1542.8 3414.6 1542.8 3419.52 1547.73 3419.52 1553.8Z" stroke="#ED7D31" stroke-width="3.4375" stroke-linejoin="round" stroke-miterlimit="10" fill="#ED7D31"/><path d="M3515.52 1535.8C3515.52 1541.88 3510.6 1546.8 3504.52 1546.8 3498.45 1546.8 3493.52 1541.88 3493.52 1535.8 3493.52 1529.73 3498.45 1524.8 3504.52 1524.8 3510.6 1524.8 3515.52 1529.73 3515.52 1535.8Z" stroke="#ED7D31" stroke-width="3.4375" stroke-linejoin="round" stroke-miterlimit="10" fill="#ED7D31"/><path d="M3611.52 1535.8C3611.52 1541.88 3606.6 1546.8 3600.52 1546.8 3594.45 1546.8 3589.52 1541.88 3589.52 1535.8 3589.52 1529.73 3594.45 1524.8 3600.52 1524.8 3606.6 1524.8 3611.52 1529.73 3611.52 1535.8Z" stroke="#ED7D31" stroke-width="3.4375" stroke-linejoin="round" stroke-miterlimit="10" fill="#ED7D31"/><path d="M3707.52 1528.8C3707.52 1534.88 3702.6 1539.8 3696.52 1539.8 3690.45 1539.8 3685.52 1534.88 3685.52 1528.8 3685.52 1522.73 3690.45 1517.8 3696.52 1517.8 3702.6 1517.8 3707.52 1522.73 3707.52 1528.8Z" stroke="#ED7D31" stroke-width="3.4375" stroke-linejoin="round" stroke-miterlimit="10" fill="#ED7D31"/><path d="M3804.52 1524.8C3804.52 1530.88 3799.6 1535.8 3793.52 1535.8 3787.45 1535.8 3782.52 1530.88 3782.52 1524.8 3782.52 1518.73 3787.45 1513.8 3793.52 1513.8 3799.6 1513.8 3804.52 1518.73 3804.52 1524.8Z" stroke="#ED7D31" stroke-width="3.4375" stroke-linejoin="round" stroke-miterlimit="10" fill="#ED7D31"/></g><g><text fill="#404040" font-family="Calibri,Calibri_MSFontService,sans-serif" font-weight="400" font-size="41" transform="matrix(1 0 0 1 2339.61 1851)">9</text></g><g><text fill="#404040" font-family="Calibri,Calibri_MSFontService,sans-serif" font-weight="400" font-size="41" transform="matrix(1 0 0 1 2409.72 1687)">16.4</text></g><g><text fill="#404040" font-family="Calibri,Calibri_MSFontService,sans-serif" font-weight="400" font-size="41" transform="matrix(1 0 0 1 2505.93 1621)">19.4</text></g><g><text fill="#404040" font-family="Calibri,Calibri_MSFontService,sans-serif" font-weight="400" font-size="41" transform="matrix(1 0 0 1 2602.14 1565)">21.9</text></g><g><text fill="#404040" font-family="Calibri,Calibri_MSFontService,sans-serif" font-weight="400" font-size="41" transform="matrix(1 0 0 1 2698.35 1534)">23.3</text></g><g><text fill="#404040" font-family="Calibri,Calibri_MSFontService,sans-serif" font-weight="400" font-size="41" transform="matrix(1 0 0 1 2810.21 1497)">25</text></g><g><text fill="#404040" font-family="Calibri,Calibri_MSFontService,sans-serif" font-weight="400" font-size="41" transform="matrix(1 0 0 1 2890.77 1459)">26.7</text></g><g><text fill="#404040" font-family="Calibri,Calibri_MSFontService,sans-serif" font-weight="400" font-size="41" transform="matrix(1 0 0 1 2986.98 1448)">27.2</text></g><g><text fill="#404040" font-family="Calibri,Calibri_MSFontService,sans-serif" font-weight="400" font-size="41" transform="matrix(1 0 0 1 3083.19 1419)">28.5</text></g><g><text fill="#404040" font-family="Calibri,Calibri_MSFontService,sans-serif" font-weight="400" font-size="41" transform="matrix(1 0 0 1 3179.4 1399)">29.4</text></g><g><text fill="#404040" font-family="Calibri,Calibri_MSFontService,sans-serif" font-weight="400" font-size="41" transform="matrix(1 0 0 1 3275.6 1381)">30.2</text></g><g><text fill="#404040" font-family="Calibri,Calibri_MSFontService,sans-serif" font-weight="400" font-size="41" transform="matrix(1 0 0 1 3371.81 1357)">31.3</text></g><g><text fill="#404040" font-family="Calibri,Calibri_MSFontService,sans-serif" font-weight="400" font-size="41" transform="matrix(1 0 0 1 3468.02 1350)">31.6</text></g><g><text fill="#404040" font-family="Calibri,Calibri_MSFontService,sans-serif" font-weight="400" font-size="41" transform="matrix(1 0 0 1 3564.23 1339)">32.1</text></g><g><text fill="#404040" font-family="Calibri,Calibri_MSFontService,sans-serif" font-weight="400" font-size="41" transform="matrix(1 0 0 1 3660.44 1339)">32.1</text></g><g><text fill="#404040" font-family="Calibri,Calibri_MSFontService,sans-serif" font-weight="400" font-size="41" transform="matrix(1 0 0 1 3756.65 1339)">32.1</text></g><g><text fill="#404040" font-family="Calibri,Calibri_MSFontService,sans-serif" font-weight="400" font-size="41" transform="matrix(1 0 0 1 2313.51 1734)">14.3</text></g><g><text fill="#404040" font-family="Calibri,Calibri_MSFontService,sans-serif" font-weight="400" font-size="41" transform="matrix(1 0 0 1 2409.72 1663)">17.5</text></g><g><text fill="#404040" font-family="Calibri,Calibri_MSFontService,sans-serif" font-weight="400" font-size="41" transform="matrix(1 0 0 1 2521.58 1607)">20</text></g><g><text fill="#404040" font-family="Calibri,Calibri_MSFontService,sans-serif" font-weight="400" font-size="41" transform="matrix(1 0 0 1 2602.14 1590)">20.8</text></g><g><text fill="#404040" font-family="Calibri,Calibri_MSFontService,sans-serif" font-weight="400" font-size="41" transform="matrix(1 0 0 1 2698.35 1579)">21.3</text></g><g><text fill="#404040" font-family="Calibri,Calibri_MSFontService,sans-serif" font-weight="400" font-size="41" transform="matrix(1 0 0 1 2794.56 1554)">22.4</text></g><g><text fill="#404040" font-family="Calibri,Calibri_MSFontService,sans-serif" font-weight="400" font-size="41" transform="matrix(1 0 0 1 2890.77 1554)">22.4</text></g><g><text fill="#404040" font-family="Calibri,Calibri_MSFontService,sans-serif" font-weight="400" font-size="41" transform="matrix(1 0 0 1 2986.98 1554)">22.4</text></g><g><text fill="#404040" font-family="Calibri,Calibri_MSFontService,sans-serif" font-weight="400" font-size="41" transform="matrix(1 0 0 1 3083.19 1534)">23.3</text></g><g><text fill="#404040" font-family="Calibri,Calibri_MSFontService,sans-serif" font-weight="400" font-size="41" transform="matrix(1 0 0 1 3179.4 1530)">23.5</text></g><g><text fill="#404040" font-family="Calibri,Calibri_MSFontService,sans-serif" font-weight="400" font-size="41" transform="matrix(1 0 0 1 3275.6 1523)">23.8</text></g><g><text fill="#404040" font-family="Calibri,Calibri_MSFontService,sans-serif" font-weight="400" font-size="41" transform="matrix(1 0 0 1 3371.81 1510)">24.4</text></g><g><text fill="#404040" font-family="Calibri,Calibri_MSFontService,sans-serif" font-weight="400" font-size="41" transform="matrix(1 0 0 1 3468.02 1492)">25.2</text></g><g><text fill="#404040" font-family="Calibri,Calibri_MSFontService,sans-serif" font-weight="400" font-size="41" transform="matrix(1 0 0 1 3564.23 1492)">25.2</text></g><g><text fill="#404040" font-family="Calibri,Calibri_MSFontService,sans-serif" font-weight="400" font-size="41" transform="matrix(1 0 0 1 3660.44 1486)">25.5</text></g><g><text fill="#404040" font-family="Calibri,Calibri_MSFontService,sans-serif" font-weight="400" font-size="41" transform="matrix(1 0 0 1 3756.65 1481)">25.7</text></g><g><text fill="#595959" font-family="Calibri,Calibri_MSFontService,sans-serif" font-weight="400" font-size="55" transform="matrix(1 0 0 1 2223.27 2110)">0</text></g><g><text fill="#595959" font-family="Calibri,Calibri_MSFontService,sans-serif" font-weight="400" font-size="55" transform="matrix(1 0 0 1 2223.27 1999)">5</text></g><g><text fill="#595959" font-family="Calibri,Calibri_MSFontService,sans-serif" font-weight="400" font-size="55" transform="matrix(1 0 0 1 2195.47 1888)">10</text></g><g><text fill="#595959" font-family="Calibri,Calibri_MSFontService,sans-serif" font-weight="400" font-size="55" transform="matrix(1 0 0 1 2195.47 1777)">15</text></g><g><text fill="#595959" font-family="Calibri,Calibri_MSFontService,sans-serif" font-weight="400" font-size="55" transform="matrix(1 0 0 1 2195.47 1666)">20</text></g><g><text fill="#595959" font-family="Calibri,Calibri_MSFontService,sans-serif" font-weight="400" font-size="55" transform="matrix(1 0 0 1 2195.47 1556)">25</text></g><g><text fill="#595959" font-family="Calibri,Calibri_MSFontService,sans-serif" font-weight="400" font-size="55" transform="matrix(1 0 0 1 2195.47 1445)">30</text></g><g><text fill="#595959" font-family="Calibri,Calibri_MSFontService,sans-serif" font-weight="400" font-size="55" transform="matrix(1 0 0 1 2195.47 1334)">35</text></g><g><text fill="#595959" font-family="Calibri,Calibri_MSFontService,sans-serif" font-weight="400" font-size="55" transform="matrix(1 0 0 1 2336.17 2181)">1</text></g><g><text fill="#595959" font-family="Calibri,Calibri_MSFontService,sans-serif" font-weight="400" font-size="55" transform="matrix(1 0 0 1 2432.38 2181)">2</text></g><g><text fill="#595959" font-family="Calibri,Calibri_MSFontService,sans-serif" font-weight="400" font-size="55" transform="matrix(1 0 0 1 2528.58 2181)">3</text></g><g><text fill="#595959" font-family="Calibri,Calibri_MSFontService,sans-serif" font-weight="400" font-size="55" transform="matrix(1 0 0 1 2624.79 2181)">4</text></g><g><text fill="#595959" font-family="Calibri,Calibri_MSFontService,sans-serif" font-weight="400" font-size="55" transform="matrix(1 0 0 1 2721 2181)">5</text></g><g><text fill="#595959" font-family="Calibri,Calibri_MSFontService,sans-serif" font-weight="400" font-size="55" transform="matrix(1 0 0 1 2817.21 2181)">6</text></g><g><text fill="#595959" font-family="Calibri,Calibri_MSFontService,sans-serif" font-weight="400" font-size="55" transform="matrix(1 0 0 1 2913.42 2181)">7</text></g><g><text fill="#595959" font-family="Calibri,Calibri_MSFontService,sans-serif" font-weight="400" font-size="55" transform="matrix(1 0 0 1 3009.63 2181)">8</text></g><g><text fill="#595959" font-family="Calibri,Calibri_MSFontService,sans-serif" font-weight="400" font-size="55" transform="matrix(1 0 0 1 3105.84 2181)">9</text></g><g><text fill="#595959" font-family="Calibri,Calibri_MSFontService,sans-serif" font-weight="400" font-size="55" transform="matrix(1 0 0 1 3188.15 2181)">10</text></g><g><text fill="#595959" font-family="Calibri,Calibri_MSFontService,sans-serif" font-weight="400" font-size="55" transform="matrix(1 0 0 1 3284.36 2181)">11</text></g><g><text fill="#595959" font-family="Calibri,Calibri_MSFontService,sans-serif" font-weight="400" font-size="55" transform="matrix(1 0 0 1 3380.57 2181)">12</text></g><g><text fill="#595959" font-family="Calibri,Calibri_MSFontService,sans-serif" font-weight="400" font-size="55" transform="matrix(1 0 0 1 3476.78 2181)">13</text></g><g><text fill="#595959" font-family="Calibri,Calibri_MSFontService,sans-serif" font-weight="400" font-size="55" transform="matrix(1 0 0 1 3572.99 2181)">14</text></g><g><text fill="#595959" font-family="Calibri,Calibri_MSFontService,sans-serif" font-weight="400" font-size="55" transform="matrix(1 0 0 1 3669.2 2181)">15</text></g><g><text fill="#595959" font-family="Calibri,Calibri_MSFontService,sans-serif" font-weight="400" font-size="55" transform="matrix(1 0 0 1 3765.4 2181)">16</text></g><g><text fill="#595959" font-family="Calibri,Calibri_MSFontService,sans-serif" font-weight="400" font-size="61" transform="matrix(6.12323e-17 -1 1 6.12323e-17 2165.32 1750)">Acc</text></g><g><text fill="#595959" font-family="Calibri,Calibri_MSFontService,sans-serif" font-weight="400" font-size="61" transform="matrix(1 0 0 1 2869.3 2268)">Number of trials</text></g><g><text fill="#595959" font-family="Calibri,Calibri_MSFontService,sans-serif" font-weight="400" font-size="85" transform="matrix(1 0 0 1 2699.26 1111)">OSWorld</text></g><g><text fill="#595959" font-family="Calibri,Calibri_MSFontService,sans-serif" font-weight="400" font-size="85" transform="matrix(1 0 0 1 3025.21 1111)">(OOD)</text></g><g><path d="M2670 1215 2758 1215" stroke="#5B9BD5" stroke-width="10.3125" stroke-linecap="round" stroke-linejoin="round" stroke-miterlimit="10" fill="none" fill-rule="evenodd"/></g><g><path d="M2725 1215C2725 1221.07 2720.07 1226 2714 1226 2707.93 1226 2703 1221.07 2703 1215 2703 1208.92 2707.93 1204 2714 1204 2720.07 1204 2725 1208.92 2725 1215Z" stroke="#5B9BD5" stroke-width="3.4375" stroke-linejoin="round" stroke-miterlimit="10" fill="#5B9BD5"/></g><g><text fill="#595959" font-family="Calibri,Calibri_MSFontService,sans-serif" font-weight="400" font-size="55" transform="matrix(1 0 0 1 2767.67 1231)">STEVE-R1</text></g><g><path d="M3031 1215 3119 1215" stroke="#ED7D31" stroke-width="10.3125" stroke-linecap="round" stroke-linejoin="round" stroke-miterlimit="10" fill="none" fill-rule="evenodd"/></g><g><path d="M3085 1215C3085 1221.07 3080.07 1226 3074 1226 3067.93 1226 3063 1221.07 3063 1215 3063 1208.92 3067.93 1204 3074 1204 3080.07 1204 3085 1208.92 3085 1215Z" stroke="#ED7D31" stroke-width="3.4375" stroke-linejoin="round" stroke-miterlimit="10" fill="#ED7D31"/></g><g><text fill="#595959" font-family="Calibri,Calibri_MSFontService,sans-serif" font-weight="400" font-size="55" transform="matrix(1 0 0 1 3128.08 1231)">UI-Tars</text></g></g></svg>